<svg viewBox="170 75 450 350" xmlns="http://www.w3.org/2000/svg"><polygon fill="#E35E54" points="548.275,352.303 605.237,319.416 548.275,286.94 548.275,318.712"></polygon><polygon fill="#CE444E" points="434.351,352.303 434.351,417.667 491.313,385.19 462.832,368.747"></polygon><polygon fill="#F38066" points="516.195,370.824 491.313,385.19 548.275,417.667 548.275,352.303"></polygon><polygon fill="#E35E54" points="377.389,254.053 377.389,221.576 377.389,188.689 341.258,209.289 320.427,221.166"></polygon><polygon fill="#863B4A" points="548.275,352.303 491.313,385.19 516.195,370.824"></polygon><path fill="#F8B197" d="M317.929,302.591c-9.86-5.693-22.585-2.283-28.277,7.577v0c-5.693,9.86-2.283,22.585,7.577,28.277l80.161,46.281v-47.805L317.929,302.591z" class="jrsonnet-trail trail-1"></path><path fill="#F8B197" d="M363.956,115.373c-9.86-5.693-22.584-2.283-28.277,7.577v0c-5.693,9.86-2.283,22.585,7.577,28.277l49.51,28.585l41.401-23.903L363.956,115.373z" class="jrsonnet-trail trail-2"></path><path fill="#F8B197" d="M261.712,270.135l-11.951-6.9c-9.86-5.693-22.584-2.283-28.277,7.577l0,0c-5.693,9.86-2.283,22.584,7.577,28.277l11.951,6.9c9.86,5.693,22.584,2.283,28.277-7.577h0C274.981,288.552,271.572,275.827,261.712,270.135z" class="jrsonnet-trail trail-3"></path><path fill="#F8B197" d="M290.546,120.945c9.86,5.693,22.585,2.283,28.277-7.577v0c5.693-9.86,2.283-22.584-7.577-28.277l0,0c-9.86-5.693-22.584-2.283-28.277,7.577h0C277.277,102.527,280.687,115.252,290.546,120.945z" class="jrsonnet-trail trail-4"></path><path fill="#F9B299" d="M341.258,209.289l-131.597-75.978c-9.86-5.693-22.585-2.283-28.277,7.577s-2.283,22.585,7.577,28.277l131.467,75.903v-23.903L341.258,209.289z" class="jrsonnet-trail trail-5"></path><path fill="#F8B197" d="M582.908,175.797c-0.085-0.051-0.161-0.11-0.247-0.16l-83.659-48.301c-9.86-5.693-22.584-2.283-28.277,7.577h0c-5.693,9.86-2.283,22.585,7.577,28.277l28.588,16.505l41.386-23.894L582.908,175.797z" class="jrsonnet-trail trail-6"></path><polygon fill="#F48066" points="434.351,286.94 434.351,221.576 377.389,188.689 377.389,221.576 377.389,254.053 320.427,221.166 320.427,245.068 320.427,286.529 377.389,319.416 377.389,336.921 377.389,384.726 377.389,384.78 434.351,417.667 434.351,352.303 462.832,368.747 491.313,385.19 491.313,319.827"></polygon><polygon fill="#CE444E" points="491.313,385.19 548.275,352.303 548.275,318.712 548.275,286.94 491.313,319.827"></polygon><polygon fill="#CE444E" points="548.275,221.576 548.275,286.94 605.237,254.053 605.237,188.689"></polygon><polygon fill="#CE444E" points="548.275,417.667 605.237,384.78 605.237,319.416 548.275,352.303"></polygon><polygon fill="#CE444E" points="434.351,286.94 491.313,254.053 491.313,188.689 434.351,221.576"></polygon><polygon fill="#F38066" points="491.313,188.689 491.313,254.053 548.275,286.94 548.275,221.576"></polygon><polygon fill="#E35E54" points="434.351,286.94 491.313,319.827 548.275,286.94 491.313,254.053"></polygon><polygon fill="#E45E54" points="548.275,155.802 506.89,179.696 491.313,188.689 548.275,221.576 605.237,188.689 582.908,175.797"></polygon><polygon fill="#E35E54" points="491.313,188.689 434.351,155.802 434.166,155.909 392.766,179.812 377.389,188.689 434.351,221.576"></polygon></svg>
